<svg xmlns="http://www.w3.org/2000/svg"  viewBox="0 0 64 64" width="128px" height="128px" baseProfile="basic"><radialGradient id="Pn4vM_XXeQYpvYMVUNPKTa" cx="30.167" cy="-2395.334" r="41.833" gradientTransform="matrix(1 0 0 -1 0 -2360)" gradientUnits="userSpaceOnUse"><stop offset="0" stop-color="#afeeff"/><stop offset=".193" stop-color="#bbf1ff"/><stop offset=".703" stop-color="#d7f8ff"/><stop offset="1" stop-color="#e1faff"/></radialGradient><path fill="url(#Pn4vM_XXeQYpvYMVUNPKTa)" d="M61.501,17.008l-2.379,0c-0.886,0-1.75-0.512-2.02-1.357	c-0.437-1.369,0.589-2.643,1.898-2.643l0,0c1.85,0,3.32-1.69,2.94-3.6c-0.28-1.43-1.62-2.4-3.07-2.4L45.5,7C44.67,7,44,6.33,44,5.5	S44.67,4,45.5,4L51,4c1.105,0,2-0.895,2-2v0c0-1.105-0.895-2-2-2L6.574,0C5.568,0,4.592,0.549,4.209,1.479	C3.472,3.266,4.793,5,6.502,5l0,0c0.69,0,1.32,0.28,1.77,0.73c0.565,0.565,0.862,1.415,0.673,2.31C8.714,9.133,7.5,10,6.383,10	L3.69,10c-2.015,0-3.348,0.972-3.63,2.395C-0.319,14.307,1.152,16,3,16h23v5H5.5C3.015,21,1,23.015,1,25.5v0	C1,27.985,3.015,30,5.5,30H9v16l-3,0c-1.657,0-3,1.343-3,3v0c0,1.657,1.343,3,3,3l8,0c1.657,0,3,1.343,3,3v0c0,1.657-1.343,3-3,3	l-2.858,0c-1.474,0-2.837,0.998-3.093,2.45C7.713,62.353,9.16,64,11,64l45.806,0c1.642,0,3.124-1.232,3.191-2.873	C60.068,59.409,58.702,58,57,58h0.392c-1.583,0-2.824-1.474-2.424-3.123C55.242,53.742,56.345,53,57.513,53l1.395,0	c2.73,0,4.833-1.704,5.069-4.038C64.247,46.282,62.127,44,59.5,44H50l0-4h8.5c1.933,0,3.5-1.567,3.5-3.5v0	c0-1.933-1.567-3.5-3.5-3.5H50V21.999l11.411,0.009c1.14,0,2.2-0.72,2.5-1.82C64.351,18.527,63.091,17.008,61.501,17.008z"/><linearGradient id="Pn4vM_XXeQYpvYMVUNPKTb" x1="32" x2="32" y1="60.959" y2="2.614" gradientUnits="userSpaceOnUse"><stop offset="0" stop-color="#ff5840"/><stop offset="1" stop-color="#fc5472"/></linearGradient><path fill="url(#Pn4vM_XXeQYpvYMVUNPKTb)" d="M48.611,9H15.389C11.86,9,9,11.86,9,15.389v6.759l8.185,4.727	c0.395,0.228,0.881,0.228,1.276,0.001l16.288-9.365c0.194-0.112,0.432-0.113,0.628-0.005l2.128,1.179	c0.435,0.241,0.44,0.865,0.009,1.113L18.456,30.752c-0.395,0.227-0.881,0.227-1.275-0.001L9,26.031v3.891l8.185,4.727	c0.395,0.228,0.881,0.228,1.276,0.001l16.288-9.365c0.194-0.112,0.432-0.113,0.628-0.005l2.128,1.179	c0.435,0.241,0.44,0.865,0.009,1.113L18.456,38.527c-0.395,0.227-0.881,0.227-1.275-0.001L9,33.806v3.891l8.185,4.727	c0.395,0.228,0.881,0.228,1.276,0.001l16.288-9.365c0.194-0.112,0.432-0.113,0.628-0.005l2.128,1.179	c0.435,0.241,0.44,0.865,0.009,1.113L18.456,46.301c-0.395,0.227-0.881,0.227-1.275-0.001L9,41.58v7.031C9,52.14,11.86,55,15.389,55	h33.222C52.14,55,55,52.14,55,48.611V15.389C55,11.86,52.14,9,48.611,9z"/></svg>